<svg xmlns="http://www.w3.org/2000/svg"
     width="680" height="320" viewBox="0 0 680 320"
     font-family="-apple-system, BlinkMacSystemFont, 'Segoe UI', Helvetica, Arial, sans-serif">
  <title>GeoForensic Velocity-Zeitreihe mit Niederschlag</title>
  <desc>Bewegungsverlauf mit Trendlinie</desc>

  <text x="40" y="35" font-size="14" font-weight="500" fill="#2C2C2A">Bewegungsverlauf · 2020 bis 2024</text>
  <text x="40" y="53" font-size="12" fill="#5F5E5A">Negative Werte = Setzung · Säulen = monatlicher Niederschlag</text>

  <line x1="80" y1="80"
        x2="80" y2="240"
        stroke="#888780" stroke-width="0.5"/>
  <line x1="80" y1="240"
        x2="640" y2="240"
        stroke="#888780" stroke-width="0.5"/>

  <text x="74" y="235.6"
        text-anchor="end" font-size="12" fill="#5F5E5A">−2</text>
  <text x="74" y="186.2"
        text-anchor="end" font-size="12" fill="#5F5E5A">−1</text>
  <text x="74" y="136.8"
        text-anchor="end" font-size="12" fill="#5F5E5A">0</text>
  <text x="74" y="87.5"
        text-anchor="end" font-size="12" fill="#5F5E5A">+1</text>
  <text x="40" y="160"
        text-anchor="middle" font-size="12" fill="#5F5E5A">mm</text>

  <line x1="80" y1="132.8"
        x2="640" y2="132.8"
        stroke="#B4B2A9" stroke-width="0.5" stroke-dasharray="2 3"/>

  <rect x="63.2" y="186.9"
        width="33.6" height="53.1"
        fill="#B5D4F4" opacity="0.6"/>
  <rect x="125.2" y="207.4"
        width="33.6" height="32.6"
        fill="#B5D4F4" opacity="0.6"/>
  <rect x="187.9" y="190.3"
        width="33.6" height="49.7"
        fill="#B5D4F4" opacity="0.6"/>
  <rect x="249.6" y="204.0"
        width="33.6" height="36.0"
        fill="#B5D4F4" opacity="0.6"/>
  <rect x="312.4" y="180.0"
        width="33.6" height="60.0"
        fill="#B5D4F4" opacity="0.6"/>
  <rect x="374.0" y="210.0"
        width="33.6" height="30.0"
        fill="#B5D4F4" opacity="0.6"/>
  <rect x="436.8" y="184.3"
        width="33.6" height="55.7"
        fill="#B5D4F4" opacity="0.6"/>
  <rect x="498.5" y="198.9"
        width="33.6" height="41.1"
        fill="#B5D4F4" opacity="0.6"/>
  <rect x="561.2" y="192.9"
        width="33.6" height="47.1"
        fill="#B5D4F4" opacity="0.6"/>
  <rect x="623.2" y="205.7"
        width="33.6" height="34.3"
        fill="#B5D4F4" opacity="0.6"/>

  <path d="M 80.0 129.4 L 142.0 154.6 L 204.7 150.1 L 266.4 156.5 L 329.2 149.6 L 390.8 167.4 L 453.6 155.6 L 515.3 173.3 L 578.0 172.3 L 640.0 190.6"
        fill="none" stroke="#534AB7" stroke-width="2"/>

  <circle cx="80.0" cy="129.4"
          r="3" fill="#534AB7"/>
  <circle cx="142.0" cy="154.6"
          r="3" fill="#534AB7"/>
  <circle cx="204.7" cy="150.1"
          r="3" fill="#534AB7"/>
  <circle cx="266.4" cy="156.5"
          r="3" fill="#534AB7"/>
  <circle cx="329.2" cy="149.6"
          r="3" fill="#534AB7"/>
  <circle cx="390.8" cy="167.4"
          r="3" fill="#534AB7"/>
  <circle cx="453.6" cy="155.6"
          r="3" fill="#534AB7"/>
  <circle cx="515.3" cy="173.3"
          r="3" fill="#534AB7"/>
  <circle cx="578.0" cy="172.3"
          r="3" fill="#534AB7"/>
  <circle cx="640.0" cy="190.6"
          r="3" fill="#534AB7"/>

  <line x1="80.0" y1="138.0"
        x2="640.0" y2="181.9"
        stroke="#A32D2D" stroke-width="1"
        stroke-dasharray="4 3"/>
  <text x="635"
        y="195.9"
        text-anchor="end" font-size="12"
        fill="#A32D2D">
    Trend -0.2 mm/J
  </text>

  <text x="80.0" y="258"
        text-anchor="middle" font-size="12" fill="#5F5E5A">2020</text>
  <text x="204.7" y="258"
        text-anchor="middle" font-size="12" fill="#5F5E5A">2021</text>
  <text x="329.2" y="258"
        text-anchor="middle" font-size="12" fill="#5F5E5A">2022</text>
  <text x="453.6" y="258"
        text-anchor="middle" font-size="12" fill="#5F5E5A">2023</text>
  <text x="578.0" y="258"
        text-anchor="middle" font-size="12" fill="#5F5E5A">2024</text>

  <rect x="80" y="280" width="12" height="10" fill="#534AB7"/>
  <text x="98" y="289" font-size="12" fill="#5F5E5A">Setzung (PSI-Mittel)</text>
  <rect x="220" y="280" width="12" height="10"
        fill="#B5D4F4" opacity="0.6"/>
  <text x="238" y="289" font-size="12" fill="#5F5E5A">Niederschlag (DWD)</text>
  <line x1="370" y1="285" x2="390" y2="285"
        stroke="#A32D2D" stroke-width="1"
        stroke-dasharray="4 3"/>
  <text x="395" y="289" font-size="12"
        fill="#A32D2D">Trendlinie</text>

  <text x="640" y="289" text-anchor="end" font-size="12" fill="#5F5E5A">
    Pearson r = 0.89 (detrendet)
  </text>
</svg>