<svg xmlns="http://www.w3.org/2000/svg"
     width="680" height="420" viewBox="0 0 680 420"
     font-family="-apple-system, BlinkMacSystemFont, 'Segoe UI', Helvetica, Arial, sans-serif">
  <title>GeoForensic Bodenkontext-Stapel</title>
  <desc>Vertikaler Querschnitt durch das Grundstück bis 5 m Tiefe.</desc>

  <text x="40" y="32" font-size="14" font-weight="500" fill="#2C2C2A">Bodenprofil bis 5&#160;m</text>
  <text x="40" y="50" font-size="11" fill="#5F5E5A">Querschnitt von Oberkante bis Festgestein</text>

  <rect x="180" y="73"
        width="320" height="50"
        fill="#5F5E5A"/>
  <rect x="220" y="88"
        width="20" height="20" fill="#B4B2A9"/>
  <rect x="260" y="88"
        width="20" height="20" fill="#B4B2A9"/>
  <rect x="400" y="88"
        width="20" height="20" fill="#B4B2A9"/>
  <rect x="440" y="88"
        width="20" height="20" fill="#B4B2A9"/>

  <rect x="180" y="123"
        width="320" height="22"
        fill="#888780"/>

  <rect x="180" y="145.0"
        width="320" height="18.4"
        fill="#FAC775"/>
  <rect x="180" y="163.4"
        width="320" height="64.4"
        fill="#EF9F27"/>
  <rect x="180" y="227.8"
        width="320" height="78.2"
        fill="#888780"/>
  <rect x="180" y="306.0"
        width="320" height="69.0"
        fill="#444441"/>


  <line x1="170" y1="145"
        x2="170" y2="375"
        stroke="#888780" stroke-width="0.5"/>
  <line x1="165" y1="145.0"
        x2="170" y2="145.0"
        stroke="#888780" stroke-width="0.5"/>
  <text x="160" y="149.0"
        text-anchor="end" font-size="12" fill="#5F5E5A">0 m</text>
  <line x1="165" y1="191.0"
        x2="170" y2="191.0"
        stroke="#888780" stroke-width="0.5"/>
  <text x="160" y="195.0"
        text-anchor="end" font-size="12" fill="#5F5E5A">−1 m</text>
  <line x1="165" y1="237.0"
        x2="170" y2="237.0"
        stroke="#888780" stroke-width="0.5"/>
  <text x="160" y="241.0"
        text-anchor="end" font-size="12" fill="#5F5E5A">−2 m</text>
  <line x1="165" y1="283.0"
        x2="170" y2="283.0"
        stroke="#888780" stroke-width="0.5"/>
  <text x="160" y="287.0"
        text-anchor="end" font-size="12" fill="#5F5E5A">−3 m</text>
  <line x1="165" y1="329.0"
        x2="170" y2="329.0"
        stroke="#888780" stroke-width="0.5"/>
  <text x="160" y="333.0"
        text-anchor="end" font-size="12" fill="#5F5E5A">−4 m</text>
  <line x1="165" y1="375.0"
        x2="170" y2="375.0"
        stroke="#888780" stroke-width="0.5"/>
  <text x="160" y="379.0"
        text-anchor="end" font-size="12" fill="#5F5E5A">−5 m</text>

  <line x1="500" y1="98"
        x2="555" y2="98"
        stroke="#5F5E5A" stroke-width="0.5"/>
  <text x="560" y="102"
        font-size="12" font-weight="500" fill="#2C2C2A">Bebauung</text>
  <line x1="500" y1="134"
        x2="555" y2="134"
        stroke="#5F5E5A" stroke-width="0.5"/>
  <text x="560" y="138"
        font-size="12" font-weight="500" fill="#2C2C2A">Versiegelung 65 %</text>
  <line x1="500" y1="154.2"
        x2="555" y2="154.2"
        stroke="#5F5E5A" stroke-width="0.5"/>
  <text x="560"
        y="152.2"
        font-size="12" font-weight="500" fill="#2C2C2A">Mutterboden</text>  <text x="560"
        y="166.2"
        font-size="11" fill="#5F5E5A">SoilGrids 250 m</text>  <line x1="500" y1="195.6"
        x2="555" y2="195.6"
        stroke="#5F5E5A" stroke-width="0.5"/>
  <text x="560"
        y="193.6"
        font-size="12" font-weight="500" fill="#2C2C2A">Sand, kiesig</text>  <text x="560"
        y="207.6"
        font-size="11" fill="#5F5E5A">BGR GÜK250</text>  <line x1="500" y1="266.9"
        x2="555" y2="266.9"
        stroke="#5F5E5A" stroke-width="0.5"/>
  <text x="560"
        y="264.9"
        font-size="12" font-weight="500" fill="#2C2C2A">Geschiebemergel</text>  <text x="560"
        y="278.9"
        font-size="11" fill="#5F5E5A">BGR GÜK250</text>  <line x1="500" y1="340.5"
        x2="555" y2="340.5"
        stroke="#5F5E5A" stroke-width="0.5"/>
  <text x="560"
        y="338.5"
        font-size="12" font-weight="500" fill="#2C2C2A">Glaziale Sedimente</text>  <text x="560"
        y="352.5"
        font-size="11" fill="#5F5E5A">BGR GÜK250</text>
  <text x="40" y="395" font-size="12" fill="#5F5E5A">
    Grundwasserstand nicht verfügbar — Bodenstruktur weiterhin auswertbar.
  </text>
</svg>