<svg xmlns="http://www.w3.org/2000/svg"
     width="680" height="440" viewBox="0 0 680 440"
     font-family="-apple-system, BlinkMacSystemFont, 'Segoe UI', Helvetica, Arial, sans-serif">
  <title>GeoForensic Korrelations-Spinne</title>
  <desc>Sechs-Achsen-Radar · stärkster Treiber: sealing</desc>

  <text x="40" y="35" font-size="14" font-weight="500" fill="#2C2C2A">Was beeinflusst die Bewegung?</text>
  <text x="40" y="53" font-size="12" fill="#5F5E5A">Sechs Faktoren · 0 = unkritisch · 5 = stark</text>

  <g>
    <polygon points="340.0,210.0 366.0,225.0 366.0,255.0 340.0,270.0 314.0,255.0 314.0,225.0" fill="none" stroke="#B4B2A9" stroke-width="0.5"/>
    <polygon points="340.0,180.0 392.0,210.0 392.0,270.0 340.0,300.0 288.0,270.0 288.0,210.0" fill="none" stroke="#B4B2A9" stroke-width="0.5"/>
    <polygon points="340.0,150.0 417.9,195.0 417.9,285.0 340.0,330.0 262.1,285.0 262.1,195.0" fill="none" stroke="#B4B2A9" stroke-width="0.5"/>
    <polygon points="340.0,120.0 443.9,180.0 443.9,300.0 340.0,360.0 236.1,300.0 236.1,180.0" fill="none" stroke="#B4B2A9" stroke-width="0.5"/>
    <polygon points="340.0,90.0 469.9,165.0 469.9,315.0 340.0,390.0 210.1,315.0 210.1,165.0" fill="none" stroke="#B4B2A9" stroke-width="0.5"/>

    <line x1="340" y1="240"
          x2="340.0" y2="90.0"
          stroke="#B4B2A9" stroke-width="0.5"/>
    <line x1="340" y1="240"
          x2="469.9" y2="165.0"
          stroke="#B4B2A9" stroke-width="0.5"/>
    <line x1="340" y1="240"
          x2="469.9" y2="315.0"
          stroke="#B4B2A9" stroke-width="0.5"/>
    <line x1="340" y1="240"
          x2="340.0" y2="390.0"
          stroke="#B4B2A9" stroke-width="0.5"/>
    <line x1="340" y1="240"
          x2="210.1" y2="315.0"
          stroke="#B4B2A9" stroke-width="0.5"/>
    <line x1="340" y1="240"
          x2="210.1" y2="165.0"
          stroke="#B4B2A9" stroke-width="0.5"/>

    <polygon points="340.0,225.0 351.7,233.2 424.4,288.8 340.0,285.0 333.5,243.8 307.5,221.2"
             fill="#534AB7" fill-opacity="0.25"
             stroke="#534AB7" stroke-width="1.5"/>

    <circle cx="340.0" cy="225.0" r="3.5"
            fill="#534AB7"/>
    <circle cx="351.7" cy="233.2" r="3.5"
            fill="#534AB7"/>
    <circle cx="424.4" cy="288.8" r="3.5"
            fill="#534AB7"/>
    <circle cx="340.0" cy="285.0" r="3.5"
            fill="#534AB7"/>
    <circle cx="333.5" cy="243.8" r="3.5"
            fill="#534AB7"/>
    <circle cx="307.5" cy="221.2" r="3.5"
            fill="#534AB7"/>

    <text x="340.0" y="72.0"
          text-anchor="middle" font-size="14" font-weight="500"
          fill="#2C2C2A">
      Velocity
    </text>
    <text x="340.0" y="86.0"
          text-anchor="middle" font-size="12" fill="#5F5E5A">0.5</text>
    <text x="485.5" y="156.0"
          text-anchor="start" font-size="14" font-weight="500"
          fill="#2C2C2A">
      Niederschlag
    </text>
    <text x="485.5" y="170.0"
          text-anchor="start" font-size="12" fill="#5F5E5A">0.5</text>
    <text x="485.5" y="324.0"
          text-anchor="start" font-size="14" font-weight="500"
          fill="#534AB7">
      Versiegelung
    </text>
    <text x="485.5" y="338.0"
          text-anchor="start" font-size="12" fill="#5F5E5A">3.2</text>
    <text x="340.0" y="408.0"
          text-anchor="middle" font-size="14" font-weight="500"
          fill="#2C2C2A">
      Quelltonanteil
    </text>
    <text x="340.0" y="422.0"
          text-anchor="middle" font-size="12" fill="#5F5E5A">1.5</text>
    <text x="194.5" y="324.0"
          text-anchor="end" font-size="14" font-weight="500"
          fill="#2C2C2A">
      Hangneigung
    </text>
    <text x="194.5" y="338.0"
          text-anchor="end" font-size="12" fill="#5F5E5A">0.2</text>
    <text x="194.5" y="156.0"
          text-anchor="end" font-size="14" font-weight="500"
          fill="#2C2C2A">
      Grundwasser
    </text>
    <text x="194.5" y="170.0"
          text-anchor="end" font-size="12" fill="#5F5E5A">1.2</text>
  </g>

  <rect x="40" y="395" width="600" height="35" rx="6"
        fill="#F1EFE8" stroke="#B4B2A9" stroke-width="0.5"/>
  <text x="55" y="416" font-size="12" fill="#5F5E5A">Stärkster Treiber: Versiegelung · Korrelation r = 0.89 · saisonal-getrieben</text>
</svg>